<?xml version="1.0" encoding="utf-8"?>
<!-- Generator: Adobe Illustrator 16.0.0, SVG Export Plug-In . SVG Version: 6.00 Build 0)  -->
<!DOCTYPE svg PUBLIC "-//W3C//DTD SVG 1.1//EN" "http://www.w3.org/Graphics/SVG/1.1/DTD/svg11.dtd">
<svg version="1.1" id="Layer_1" xmlns="http://www.w3.org/2000/svg" xmlns:xlink="http://www.w3.org/1999/xlink" x="0px" y="0px"
	 width="131.491px" height="112.675px" viewBox="0 0 131.491 112.675" enable-background="new 0 0 131.491 112.675"
	 xml:space="preserve">
<g>
	<path fill="#EC344B" d="M18.781,108.029v-4.646c-5.242-0.005-9.484-4.247-9.495-9.489V18.779c0.011-5.247,4.247-9.483,9.495-9.488
		h93.937c5.246,0.005,9.482,4.241,9.488,9.488v75.115c-0.006,5.242-4.248,9.484-9.488,9.489H18.781V108.029v4.646h93.937
		c10.377-0.007,18.773-8.414,18.773-18.78V18.779c0-10.372-8.402-18.773-18.773-18.779H18.781C8.409,0.006,0.007,8.407,0,18.779
		v75.115c0.007,10.366,8.402,18.773,18.781,18.78V108.029z"/>
	<polygon fill="#EC344B" points="104.457,37.196 94.292,47.757 94.292,90.325 104.507,90.325 	"/>
	<polygon fill="#EC344B" points="26.989,22.349 26.989,90.325 37.204,90.325 37.204,47.716 45.237,56.088 52.603,49.01 	"/>
	<polygon fill="#FFFFFF" points="45.237,56.088 65.755,77.43 104.457,37.196 104.507,22.349 65.755,62.693 52.603,49.01 	"/>
</g>
</svg>
